<?xml version="1.0" encoding="utf-8"?>
<!-- Generator: Adobe Illustrator 22.1.0, SVG Export Plug-In . SVG Version: 6.00 Build 0)  -->
<svg version="1.1" id="Слой_1" xmlns="http://www.w3.org/2000/svg" xmlns:xlink="http://www.w3.org/1999/xlink" x="0px" y="0px"
	 viewBox="0 0 12 15" style="enable-background:new 0 0 12 15;" xml:space="preserve">
<style type="text/css">
	.st0{fill:#0064D2;}
</style>
<g>
	<g>
		<path class="st0" d="M0.3,14.4c0,0.3,0.3,0.6,0.6,0.6h9.8c0.3,0,0.6-0.3,0.6-0.6c0-3.2-1.4-6-3.5-7.1c1-0.6,1.6-1.8,1.6-3
			c0-2-1.6-3.6-3.6-3.6S2.2,2.3,2.2,4.3c0,1.3,0.6,2.4,1.6,3C1.8,8.4,0.3,11.2,0.3,14.4z M5.8,1.8c1.4,0,2.5,1.1,2.5,2.5
			S7.2,6.8,5.8,6.8S3.3,5.6,3.3,4.3S4.4,1.8,5.8,1.8z M5.8,7.9c2.3,0,4.1,2.6,4.3,5.9H1.5C1.7,10.5,3.5,7.9,5.8,7.9z"/>
	</g>
</g>
</svg>
